<svg xmlns="http://www.w3.org/2000/svg" fill="none" viewBox="0 0 251 57" height="57" width="251">
<path fill="#D61020" d="M66.6744 36.1365C66.6744 45.8503 72.2993 51.1883 81.9005 51.1883C91.5017 51.1883 97.1266 45.8503 97.1266 36.1365V14.4394C97.1266 10.2925 97.2392 8.07735 97.6386 5.17957H84.348C84.8019 7.90668 84.9181 9.89301 84.9181 14.4394V30.232C84.9181 33.8669 84.1737 35.8533 81.9041 35.8533C79.6309 35.8533 78.8902 33.9214 78.8902 30.232V14.4394C78.8902 10.2925 79.0027 8.07735 79.4022 5.17957H66.1116C66.5655 7.90668 66.6781 9.89301 66.6781 14.4394V36.1365H66.6744Z"></path>
<path fill="#D61020" d="M117.861 19.3812H124.866L123.991 5.18274H99.5451L98.6699 19.3812H105.675V41.3615C105.675 45.6791 105.562 47.778 105.105 50.6177H118.37C117.97 47.6074 117.858 45.3923 117.858 41.3615V19.3812H117.861Z"></path>
<path fill="#D61020" d="M24.1956 19.3812H31.2004L30.3253 5.18274H5.8793L5.00415 19.3812H12.0089V41.3615C12.0089 45.6791 11.8964 47.778 11.4388 50.6177H24.704C24.3046 47.6074 24.192 45.3923 24.192 41.3615V19.3812H24.1956Z"></path>
<path fill="#D61020" d="M48.1042 4.61548C37.3955 4.61548 31.6544 12.6225 31.2767 27.7469C31.6326 42.5046 36.6511 51.1907 48.2822 51.1907C59.9133 51.1907 64.732 43.18 65.1097 28.0592C64.7538 13.2616 60.004 4.61548 48.1042 4.61548ZM48.195 35.7322C45.221 35.7322 44.502 32.2243 44.502 27.8994C44.502 23.5746 45.221 20.074 48.195 20.074C51.1691 20.074 51.8881 23.5782 51.8881 27.8994C51.8881 32.2207 51.1691 35.7322 48.195 35.7322Z"></path>
<path fill="#D61020" d="M182.699 5.18274H169.122C169.575 8.02243 169.692 10.125 169.692 14.4426V41.3651C169.692 45.6828 169.579 47.7817 169.122 50.6213H182.699C182.3 47.611 182.187 45.3959 182.187 41.3651V14.4426C182.187 10.4118 182.3 8.19673 182.699 5.18274Z"></path>
<path fill="#D61020" d="M245.088 41.3747C245.088 45.4054 245.201 47.6205 245.6 50.6345H235.8C234.434 50.6345 233.192 49.8429 232.619 48.601L224.237 30.5171V41.3602C224.237 45.3909 224.35 47.606 224.749 50.62H212.599C213.053 47.7876 213.162 45.6851 213.162 41.3783V13.025C213.137 9.63703 212.999 7.70516 212.595 5.19592H222.56C223.951 5.19592 225.211 6.01661 225.77 7.2912L234.289 26.6679V14.4376C234.289 10.1309 234.173 8.02835 233.722 5.19592H245.597C245.197 8.20628 245.085 10.4214 245.085 14.4558V41.3783L245.088 41.3747Z"></path>
<path fill="#D61020" d="M206.491 22.9898L205.965 31.8756H197.373V35.2818H211.571L211.001 50.6168H184.307C184.761 47.7771 184.877 45.6746 184.877 41.357V14.4344C184.877 10.1168 184.761 8.01788 184.307 5.17456H210.849L211.408 19.373H197.373V23.2367L206.491 22.9825V22.9898Z"></path>
<path fill="#D61020" d="M159.811 26.1245C164.502 24.4033 166.968 20.8845 166.968 16.1457C166.968 9.04646 161.459 5.18274 151.292 5.18274H138.513C138.967 7.90985 139.083 9.89618 139.083 14.4426V41.3651C139.083 45.9079 138.971 47.8979 138.513 50.6213H151.292C162.142 50.6213 168.388 45.8498 168.388 36.7062C168.388 31.005 165.951 27.4826 159.811 26.1245ZM151.604 15.7825C154.633 15.8661 156.209 17.3549 156.209 18.9127C156.209 20.4706 154.691 22.0792 151.604 22.1664V15.7825ZM151.604 38.1405V30.7908C155.508 30.838 157.167 31.931 157.167 34.433C157.167 36.9349 155.508 38.0933 151.604 38.1405Z"></path>
<path fill="#D61020" d="M147.544 16.9109C147.199 15.8796 146.607 14.9282 145.779 14.0748C145.148 13.4248 144.291 12.8329 143.357 12.4044C142.228 11.8852 141.051 11.6201 139.864 11.6201C138.677 11.6201 137.449 11.9033 136.298 12.4589C134.951 13.1089 133.658 14.1402 132.449 15.5237C132.26 15.7416 131.984 15.8687 131.694 15.8687C131.403 15.8687 131.127 15.7416 130.938 15.5237C129.729 14.1402 128.436 13.1089 127.089 12.4553C125.938 11.8997 124.736 11.6165 123.523 11.6165C122.31 11.6165 121.159 11.8779 120.03 12.4008C119.097 12.8293 118.236 13.4248 117.608 14.0712C116.78 14.9246 116.188 15.8796 115.843 16.9073C115.462 18.0439 115.374 19.3112 115.578 20.6729C116.061 23.9193 118.189 27.7794 121.9 32.1443C123.258 33.742 124.453 35.151 125.502 36.3893C125.923 35.8954 126.345 35.4306 126.733 35.0166C126.828 34.9149 126.951 34.8714 127.078 34.8714C127.329 34.8714 127.587 35.0529 127.601 35.3325C127.656 36.3929 127.695 37.6602 127.623 38.8912C128.705 40.1695 129.569 41.1826 130.245 41.9851C130.553 41.07 130.913 40.184 131.236 39.4178C131.316 39.2253 131.508 39.1309 131.697 39.1309C131.886 39.1309 132.078 39.2253 132.158 39.4178C132.482 40.1803 132.841 41.07 133.15 41.9851C133.404 41.6837 134.453 40.4454 135.739 38.9312C135.666 37.6893 135.703 36.4038 135.761 35.3362C135.775 35.0602 136.033 34.875 136.284 34.875C136.407 34.875 136.534 34.9186 136.625 35.0203C137.017 35.4415 137.446 35.9136 137.874 36.4147C139.432 34.5772 140.913 32.8342 141.494 32.1515C145.202 27.7831 147.33 23.923 147.817 20.6802C148.02 19.3185 147.933 18.0511 147.551 16.9145L147.544 16.9109Z"></path>
<path fill="#D19000" d="M133.483 28.238L131.671 24.6249L129.892 28.238H133.483Z"></path>
<path fill="#F2E9DB" d="M127.496 16.0005C127.234 15.9061 126.958 15.8226 126.671 15.7464C126.054 15.583 125.408 15.4994 124.75 15.4994C123.254 15.4994 121.685 15.9207 120.084 16.7522C119.398 17.1081 118.788 17.4967 118.279 17.8598C118.457 15.3288 120.567 13.3315 123.145 13.3315C125.044 13.3315 126.689 14.4173 127.496 16.0005Z"></path>
<path fill="#F2E9DB" d="M138.705 30.5184C139.987 30.5184 141.026 29.4798 141.026 28.198C141.026 26.9161 139.987 25.8776 138.705 25.8776C137.423 25.8776 136.385 26.9161 136.385 28.198C136.385 29.4798 137.423 30.5184 138.705 30.5184Z"></path>
<path fill="#F2E9DB" d="M124.645 30.5184C125.923 30.5184 126.966 29.4798 126.966 28.198C126.966 26.9161 125.927 25.8776 124.645 25.8776C123.363 25.8776 122.325 26.9161 122.325 28.198C122.325 29.4798 123.363 30.5184 124.645 30.5184Z"></path>
<path fill="#F2E9DB" d="M135.888 16.0005C136.149 15.9061 136.425 15.8226 136.712 15.7464C137.329 15.583 137.976 15.4994 138.633 15.4994C140.129 15.4994 141.698 15.9207 143.299 16.7522C143.986 17.1081 144.596 17.4967 145.104 17.8598C144.926 15.3288 142.816 13.3315 140.238 13.3315C138.339 13.3315 136.694 14.4173 135.888 16.0005Z"></path>
<path fill="#F2E9DB" d="M131.693 35.1947C133.237 35.1947 134.548 34.1707 134.983 32.7654H128.407C128.839 34.1707 130.15 35.1947 131.697 35.1947H131.693Z"></path>
<path fill="#D19000" d="M142.242 19.3187C142.173 19.2824 142.101 19.2425 142.028 19.2062C141.44 18.9011 140.87 18.6724 140.318 18.5126C139.824 19.8671 138.528 20.833 137.002 20.833C136.073 20.833 135.223 20.4698 134.595 19.8816C133.919 20.4626 133.484 21.0763 133.222 21.5266C134.09 22.0422 135.815 22.8629 137.994 22.8629C138.306 22.8629 138.622 22.8447 138.931 22.812C140.256 22.6668 141.367 22.231 142.242 21.7335V19.3151V19.3187Z"></path>
<path fill="black" d="M132.376 22.1295C133.186 22.6633 135.259 23.8254 137.994 23.8254C138.331 23.8254 138.68 23.8072 139.036 23.7673C142.177 23.4259 144.207 21.6284 144.991 20.8005C145.205 20.5753 145.18 20.2158 144.944 20.0197C143.974 19.2063 141.418 17.3108 138.64 17.3108C138.161 17.3108 137.671 17.3689 137.184 17.496C134.01 18.3385 132.638 20.5209 132.187 21.4432C132.067 21.6865 132.151 21.977 132.376 22.1295ZM133.222 21.5304C133.484 21.0801 133.916 20.4664 134.595 19.8854C135.223 20.4737 136.073 20.8368 137.002 20.8368C138.527 20.8368 139.824 19.8709 140.318 18.5164C140.87 18.6725 141.443 18.9049 142.028 19.21C142.101 19.2463 142.173 19.2862 142.242 19.3225V21.741C141.367 22.2385 140.26 22.6742 138.931 22.8195C138.622 22.8522 138.302 22.8703 137.994 22.8703C135.815 22.8703 134.09 22.0497 133.222 21.534V21.5304Z"></path>
<path fill="#D19000" d="M121.104 19.3187C121.173 19.2824 121.246 19.2425 121.319 19.2062C121.907 18.9011 122.477 18.6724 123.029 18.5126C123.519 19.8671 124.819 20.833 126.341 20.833C127.27 20.833 128.12 20.4698 128.748 19.8816C129.424 20.4626 129.86 21.0763 130.121 21.5266C129.253 22.0422 127.528 22.8629 125.349 22.8629C125.037 22.8629 124.721 22.8447 124.413 22.812C123.087 22.6668 121.976 22.231 121.101 21.7335V19.3151L121.104 19.3187Z"></path>
<path fill="black" d="M131.16 21.4432C130.709 20.5209 129.337 18.3385 126.163 17.496C125.673 17.3653 125.186 17.3108 124.707 17.3108C121.929 17.3108 119.372 19.2063 118.406 20.0197C118.17 20.2195 118.145 20.5753 118.359 20.8005C119.144 21.6284 121.174 23.4259 124.315 23.7673C124.67 23.8072 125.015 23.8254 125.353 23.8254C128.088 23.8254 130.161 22.6633 130.971 22.1295C131.196 21.9807 131.279 21.6865 131.16 21.4432ZM125.353 22.8703C125.041 22.8703 124.725 22.8522 124.416 22.8195C123.091 22.6742 121.98 22.2385 121.105 21.741V19.3225C121.174 19.2862 121.246 19.2463 121.319 19.21C121.907 18.9049 122.477 18.6762 123.033 18.5164C123.523 19.8709 124.823 20.8368 126.344 20.8368C127.274 20.8368 128.124 20.4737 128.752 19.8854C129.427 20.4664 129.863 21.0801 130.125 21.5304C129.257 22.046 127.532 22.8667 125.353 22.8667V22.8703Z"></path>
<path fill="black" d="M131.675 24.6203L133.487 28.2335H129.896L131.679 24.6203M131.671 23.0952C131.494 23.0952 131.319 23.186 131.228 23.3712L128.712 28.4768C128.549 28.8072 128.788 29.1922 129.155 29.1922H134.232C134.598 29.1922 134.838 28.8036 134.675 28.4732L132.118 23.3676C132.027 23.186 131.849 23.0952 131.675 23.0952H131.671Z"></path>
<path fill="black" d="M135.633 30.6455H127.75C127.499 30.6455 127.296 30.8489 127.296 31.0994V31.7567C127.296 34.186 129.264 36.1506 131.69 36.1506C134.116 36.1506 136.084 34.1824 136.084 31.7567V31.0994C136.084 30.8489 135.88 30.6455 135.63 30.6455H135.633ZM131.69 35.1955C130.146 35.1955 128.836 34.1715 128.4 32.7662H134.976C134.544 34.1715 133.233 35.1955 131.686 35.1955H131.69Z"></path>
<path fill="black" d="M147.864 10.4411C145.187 7.6849 138.143 4.67092 131.69 12.1151C125.237 4.67092 118.192 7.68127 115.516 10.4411C111.645 14.4319 111.151 21.0191 120.168 31.6334C121.987 33.7759 123.541 35.6061 124.859 37.1603C122.88 39.6477 121.326 42.5528 124.104 43.5659C124.46 43.6966 124.78 43.7547 125.07 43.7547C126.544 43.7547 127.209 42.1969 127.485 40.2542C128.491 41.4416 129.282 42.3748 129.889 43.0938C129.133 45.7774 129.061 48.3447 131.686 48.3447C134.312 48.3447 134.239 45.7774 133.484 43.0938C134.087 42.3821 134.867 41.4597 135.859 40.2905C136.135 42.2151 136.803 43.7547 138.27 43.7547C138.56 43.7547 138.88 43.693 139.236 43.5659C142.01 42.5564 140.47 39.6659 138.499 37.1821C139.824 35.6206 141.382 33.7868 143.208 31.6334C152.225 21.0191 151.727 14.4283 147.86 10.4411H147.864ZM126.606 39.5896C126.544 40.1997 126.457 40.6935 126.359 41.093L124.609 40L124.224 39.7567C124.336 39.5606 124.464 39.35 124.612 39.1212C125.121 38.3441 125.804 37.4762 126.686 36.4812C126.719 37.6941 126.693 38.7181 126.606 39.5896ZM130.408 45.4179C130.437 45.033 130.51 44.5645 130.644 43.998C130.858 43.0938 131.2 42.0444 131.69 40.8097C132.18 42.0444 132.521 43.0938 132.736 43.998C132.87 44.5682 132.943 45.033 132.972 45.4179H130.404H130.408ZM138.735 39.1212C138.884 39.35 139.014 39.5606 139.123 39.7567L138.738 40L136.988 41.093C136.89 40.6935 136.803 40.2033 136.741 39.5896C136.654 38.7181 136.625 37.6941 136.661 36.4812C137.544 37.4726 138.226 38.3441 138.735 39.1212ZM137.867 36.4122C137.438 35.9111 137.01 35.439 136.618 35.0178C136.523 34.9161 136.4 34.8725 136.276 34.8725C136.022 34.8725 135.768 35.0541 135.753 35.3337C135.699 36.4049 135.659 37.6904 135.732 38.9287C134.664 40.1852 133.814 41.191 133.142 41.9826C132.834 41.0676 132.474 40.1815 132.151 39.4153C132.071 39.2229 131.879 39.1284 131.69 39.1284C131.501 39.1284 131.312 39.2229 131.229 39.4153C130.906 40.1779 130.546 41.0676 130.237 41.9826C129.562 41.1838 128.698 40.167 127.616 38.8888C127.685 37.6614 127.648 36.3904 127.594 35.3301C127.579 35.0541 127.321 34.8689 127.071 34.8689C126.944 34.8689 126.82 34.9125 126.726 35.0142C126.337 35.4281 125.916 35.8966 125.495 36.3868C124.445 35.1485 123.251 33.7432 121.893 32.1418C118.185 27.7733 116.057 23.9132 115.571 20.6705C115.367 19.3087 115.454 18.0414 115.836 16.9048C116.181 15.8735 116.772 14.9221 117.6 14.0688C118.229 13.4188 119.089 12.8268 120.022 12.3984C121.152 11.8791 122.328 11.614 123.516 11.614C124.703 11.614 125.931 11.8972 127.082 12.4528C128.429 13.1028 129.722 14.1341 130.931 15.5213C131.12 15.7392 131.396 15.8663 131.686 15.8663C131.977 15.8663 132.253 15.7392 132.442 15.5213C133.647 14.1378 134.944 13.1065 136.291 12.4565C137.442 11.9009 138.644 11.6176 139.857 11.6176C141.07 11.6176 142.221 11.8791 143.35 12.402C144.283 12.8305 145.144 13.426 145.772 14.0724C146.6 14.9257 147.192 15.8808 147.537 16.9084C147.918 18.045 148.005 19.3124 147.802 20.6741C147.319 23.9205 145.191 27.7806 141.48 32.1454C140.115 33.7541 138.913 35.1667 137.859 36.4086L137.867 36.4122Z"></path>
<path fill="#D19000" d="M132.739 44.0008C132.525 43.0966 132.183 42.0471 131.693 40.8125C131.203 42.0471 130.862 43.0966 130.647 44.0008C130.513 44.5709 130.44 45.0357 130.411 45.4206H132.975C132.946 45.0357 132.873 44.5673 132.739 44.0008Z"></path>
<path fill="#D19000" d="M138.734 39.1207C138.226 38.3436 137.543 37.4757 136.661 36.4807C136.628 37.6936 136.654 38.7176 136.741 39.5891C136.803 40.1992 136.89 40.693 136.988 41.0925L138.738 39.9995L139.123 39.7562C139.01 39.5601 138.883 39.3495 138.734 39.1207Z"></path>
<path fill="#D19000" d="M124.612 39.1207C125.121 38.3436 125.803 37.4757 126.686 36.4807C126.718 37.6936 126.693 38.7176 126.606 39.5891C126.544 40.1992 126.457 40.693 126.359 41.0925L124.609 39.9995L124.224 39.7562C124.336 39.5601 124.463 39.3495 124.612 39.1207Z"></path>
</svg>
